<svg width="1800" height="2360" viewBox="0 0 1800 2360" xmlns="http://www.w3.org/2000/svg"><title>book</title><desc>Created with Sketch.</desc><g fill="none" fill-rule="evenodd"><g><g><path fill="#fff" d="M0 0h1800v2360H0z"/><path d="M1223.384 1589.576c50.976-34.56 36.576-129.888-42.624-130.176h-88.416V1661h51.552v-59.328h26.784l34.56 59.328h57.6v-7.488l-39.456-63.936zm-42.624-33.696h-36.864v-50.4c12.096 0 24.768-.288 36.864 0 29.376.288 27.936 50.4 0 50.4z" id="R" fill="#000"/><path d="M962.488 1460.4H836.632V1662H965.08v-45.792h-77.184v-35.424h68.544v-45.792h-68.544v-28.512h74.592v-46.08z" fill="#000"/><path d="M587.296 1505.48V1661h50.976v-155.52h49.248v-46.08H537.76v46.08h49.536z" fill="#000"/><path d="M589.184 942v-51.552h37.152c96.48 0 96.48-149.76 0-150.048h-88.704V942h51.552zm36.864-97.92h-36.864v-57.6c11.808 0 24.768-.288 36.864 0 29.952.288 28.224 57.6 0 57.6z" fill="#000"/><path d="M946.384 870.576c50.976-34.56 36.576-129.888-42.624-130.176h-88.416V942h51.552v-59.328h26.784L928.24 942h57.6v-7.488l-39.456-63.936zM903.76 836.88h-36.864v-50.4c12.096 0 24.768-.288 36.864 0 29.376.288 27.936 50.4 0 50.4z" fill="#000"/><path d="M1275.032 841.488c0-139.392-206.784-139.392-206.784 0 0 139.68 206.784 139.68 206.784 0zm-153.792 0c0-72.576 101.088-72.576 101.088 0 0 73.152-101.088 73.152-101.088 0z" fill="#000"/><path d="M614.664 1100.4h-76.032V1302h76.032c131.328-.576 131.328-201.024 0-201.6zm-24.48 46.944h24.48c64.224 0 64.224 107.712 0 107.712h-24.48v-107.712z" fill="#000"/><path d="M899.68 1258.512c-14.976 0-30.816-8.064-30.816-24.48V1100.4h-49.248v134.496c0 44.352 38.88 69.984 80.064 69.984 41.472 0 79.776-25.632 79.776-69.984V1100.4h-49.248v133.632c0 16.416-15.552 24.48-30.528 24.48z" fill="#000"/><path d="M1072.536 1201.2c.288 68.544 52.128 103.104 103.392 102.816 42.912 0 88.128-22.464 95.616-79.488h-50.688c-5.472 21.6-23.04 32.544-44.928 32.544-30.528-.288-50.112-26.208-50.112-55.872 0-33.408 19.872-56.16 50.112-56.16 21.6 0 36.864 9.216 44.064 29.664h50.688c-7.776-53.856-52.992-76.608-94.752-76.608-51.264 0-103.104 34.56-103.392 103.104z" fill="#000"/><path d="M385 540v1320h1029V540H385zm0-60h1089v1440H325V480h60z" fill="#000"/><path d="M640.232 2163v-14.952c1.288 0 2.52 0 3.864-.224L652.72 2163h11.144v-1.568l-10.64-17.248c7.784-4.984 7.56-12.376 7.56-20.384H650.48c0 7.336.504 14.84-9.52 14.84h-.728v-14.84H630.04v39.2h10.192zm73.872-39.2h-24.472v39.2h24.976v-8.904H699.6v-6.888h13.328v-8.904H699.6v-5.544h14.504v-8.96zm34.56 0h-9.632v1.512l16.8 38.136h4.256l16.632-38.136v-1.512h-9.632l-8.96 22.176h-.28l-9.184-22.176zm65.976 30.408v-21.672h4.592v-8.736h-19.096v8.736h4.592v21.672h-4.984V2163h19.88v-8.792h-4.984zm61.664 8.848h3.584V2123.8H869.64v19.208l-19.824-19.376h-3.64V2163h10.36v-19.264l19.768 19.32zm96.392-39.256h-29.68v8.96h14.56l-16.016 28.728V2163h31.304v-8.96h-16.24l16.072-28.728v-1.512zm59.424 0h-10.248v14.224h-12.096V2123.8h-10.248v39.2h10.248v-15.736h12.096V2163h10.248v-39.2zm67.824 19.656c0-27.104-40.208-27.104-40.208 0 0 27.16 40.208 27.16 40.208 0zm-29.904 0c0-14.112 19.656-14.112 19.656 0 0 14.224-19.656 14.224-19.656 0zm76.952-19.04l-6.552 20.832h-.168l-1.736-6.664-5.04-14.784h-10.136v1.512l13.776 38.08h5.544l6.272-18.872h.168l6.272 18.872h5.768l13.608-38.08v-1.512h-9.968l-4.984 14.784-1.736 6.664h-.168l-6.664-20.832h-4.256z" fill="#000"/></g></g></g></svg>