<svg width="600" height="370" viewBox="0 0 600 370" xmlns="http://www.w3.org/2000/svg" xmlns:xlink="http://www.w3.org/1999/xlink"><title>macbook</title><desc>Created with Sketch.</desc><defs><linearGradient x1="0%" y1="0%" y2="0%" id="a"><stop stop-opacity="0" offset="0%"/><stop offset="7.182%"/><stop offset="49.709%"/><stop offset="92.818%"/><stop stop-opacity="0" offset="100%"/></linearGradient><filter x="-50%" y="-50%" width="200%" height="200%" filterUnits="objectBoundingBox" id="b"><feGaussianBlur stdDeviation=".462" in="SourceGraphic" result="blur"/></filter><filter x="-50%" y="-50%" width="200%" height="200%" filterUnits="objectBoundingBox" id="c"><feOffset in="SourceAlpha" result="shadowOffsetInner1"/><feGaussianBlur stdDeviation=".5" in="shadowOffsetInner1" result="shadowBlurInner1"/><feComposite in="shadowBlurInner1" in2="SourceAlpha" operator="arithmetic" k2="-1" k3="1" result="shadowInnerInner1"/><feColorMatrix values="0 0 0 0 0.705882353 0 0 0 0 0.701960784 0 0 0 0 0.721568627 0 0 0 0.7 0" in="shadowInnerInner1" result="shadowMatrixInner1"/><feMerge><feMergeNode in="SourceGraphic"/><feMergeNode in="shadowMatrixInner1"/></feMerge></filter><filter x="-50%" y="-50%" width="200%" height="200%" filterUnits="objectBoundingBox" id="d"><feMorphology radius="1" in="SourceAlpha" operator="dilate" result="shadowSpreadInner1"/><feOffset in="shadowSpreadInner1" result="shadowOffsetInner1"/><feGaussianBlur stdDeviation=".5" in="shadowOffsetInner1" result="shadowBlurInner1"/><feComposite in="shadowBlurInner1" in2="SourceAlpha" operator="arithmetic" k2="-1" k3="1" result="shadowInnerInner1"/><feColorMatrix values="0 0 0 0 0.121568627 0 0 0 0 0.125490196 0 0 0 0 0.141176471 0 0 0 0.7 0" in="shadowInnerInner1" result="shadowMatrixInner1"/><feMerge><feMergeNode in="SourceGraphic"/><feMergeNode in="shadowMatrixInner1"/></feMerge></filter><path id="e" d="M1.846 18.002c0-8.923 7.237-16.156 16.15-16.156h426.93c8.92 0 16.15 7.23 16.15 16.156v290.302c0 6.12-4.96 11.08-11.074 11.08H12.922c-6.117 0-11.076-4.955-11.076-11.08V18.002z"/><path id="f" d="M18.923 24.462H444.46v265.846H18.924z"/><linearGradient x1="50%" y1="0%" x2="50%" y2="100%" id="h"><stop stop-color="#747378" offset="0%"/><stop stop-color="#7E7D81" offset="27.842%"/><stop stop-color="#252429" offset="100%"/></linearGradient><path id="g" d="M0 .923V0h566.308v.923c0 2.308-27.23 8.308-77.077 8.308H76.616C30.692 9.23 0 3.23 0 .924z"/><filter x="-50%" y="-50%" width="200%" height="200%" filterUnits="objectBoundingBox" id="i"><feOffset in="SourceAlpha" result="shadowOffsetOuter1"/><feGaussianBlur in="shadowOffsetOuter1" result="shadowBlurOuter1"/><feColorMatrix values="0 0 0 0 1 0 0 0 0 1 0 0 0 0 1 0 0 0 0.0868064991 0" in="shadowBlurOuter1" result="shadowMatrixOuter1"/><feMerge><feMergeNode in="shadowMatrixOuter1"/><feMergeNode in="SourceGraphic"/></feMerge></filter><linearGradient x1="90.208%" y1="50%" y2="50%" id="l"><stop stop-color="#2F2E33" stop-opacity="0" offset="0%"/><stop stop-color="#2F2E33" offset="100%"/></linearGradient><path id="k" d="M0 .923V0h566.308v.923c0 2.308-27.23 8.308-77.077 8.308H76.616C30.692 9.23 0 3.23 0 .924z"/><linearGradient x1="90.208%" y1="50%" y2="50%" id="n"><stop stop-color="#2F2E33" stop-opacity="0" offset="0%"/><stop stop-color="#2F2E33" stop-opacity=".75" offset="100%"/></linearGradient><path id="m" d="M0 .923V0h566.308v.923c0 2.308-27.23 8.308-77.077 8.308H76.616C30.692 9.23 0 3.23 0 .924z"/><path id="o" d="M0 .923V0h566.308v.923c0 2.308-27.23 8.308-77.077 8.308H76.616C30.692 9.23 0 3.23 0 .924z"/><linearGradient x1="50%" y1="0%" x2="50%" y2="100%" id="p"><stop stop-color="#252120" offset="0%"/><stop stop-color="#383433" offset="100%"/></linearGradient><filter x="-50%" y="-50%" width="200%" height="200%" filterUnits="objectBoundingBox" id="q"><feOffset dy="-1" in="SourceAlpha" result="shadowOffsetInner1"/><feGaussianBlur in="shadowOffsetInner1" result="shadowBlurInner1"/><feComposite in="shadowBlurInner1" in2="SourceAlpha" operator="arithmetic" k2="-1" k3="1" result="shadowInnerInner1"/><feColorMatrix values="0 0 0 0 0.28627451 0 0 0 0 0.282352941 0 0 0 0 0.298039216 0 0 0 0.7 0" in="shadowInnerInner1" result="shadowMatrixInner1"/><feMerge><feMergeNode in="SourceGraphic"/><feMergeNode in="shadowMatrixInner1"/></feMerge></filter><filter x="-50%" y="-50%" width="200%" height="200%" filterUnits="objectBoundingBox" id="s"><feOffset dy="-1" in="SourceAlpha" result="shadowOffsetInner1"/><feGaussianBlur in="shadowOffsetInner1" result="shadowBlurInner1"/><feComposite in="shadowBlurInner1" in2="SourceAlpha" operator="arithmetic" k2="-1" k3="1" result="shadowInnerInner1"/><feColorMatrix values="0 0 0 0 0.28627451 0 0 0 0 0.282352941 0 0 0 0 0.298039216 0 0 0 0.7 0" in="shadowInnerInner1" result="shadowMatrixInner1"/><feMerge><feMergeNode in="SourceGraphic"/><feMergeNode in="shadowMatrixInner1"/></feMerge></filter><filter x="-50%" y="-50%" width="200%" height="200%" filterUnits="objectBoundingBox" id="t"><feOffset dy="-1" in="SourceAlpha" result="shadowOffsetInner1"/><feGaussianBlur in="shadowOffsetInner1" result="shadowBlurInner1"/><feComposite in="shadowBlurInner1" in2="SourceAlpha" operator="arithmetic" k2="-1" k3="1" result="shadowInnerInner1"/><feColorMatrix values="0 0 0 0 0.28627451 0 0 0 0 0.282352941 0 0 0 0 0.298039216 0 0 0 0.7 0" in="shadowInnerInner1" result="shadowMatrixInner1"/><feMerge><feMergeNode in="SourceGraphic"/><feMergeNode in="shadowMatrixInner1"/></feMerge></filter><filter x="-50%" y="-50%" width="200%" height="200%" filterUnits="objectBoundingBox" id="u"><feOffset dy="-1" in="SourceAlpha" result="shadowOffsetInner1"/><feGaussianBlur in="shadowOffsetInner1" result="shadowBlurInner1"/><feComposite in="shadowBlurInner1" in2="SourceAlpha" operator="arithmetic" k2="-1" k3="1" result="shadowInnerInner1"/><feColorMatrix values="0 0 0 0 0.286934013 0 0 0 0 0.2835052 0 0 0 0 0.297220451 0 0 0 0.7 0" in="shadowInnerInner1" result="shadowMatrixInner1"/><feMerge><feMergeNode in="SourceGraphic"/><feMergeNode in="shadowMatrixInner1"/></feMerge></filter><filter x="-50%" y="-50%" width="200%" height="200%" filterUnits="objectBoundingBox" id="v"><feMorphology radius="1" in="SourceAlpha" operator="dilate" result="shadowSpreadOuter1"/><feOffset in="shadowSpreadOuter1" result="shadowOffsetOuter1"/><feGaussianBlur stdDeviation="1.5" in="shadowOffsetOuter1" result="shadowBlurOuter1"/><feColorMatrix values="0 0 0 0 0.450980392 0 0 0 0 0.447058824 0 0 0 0 0.462745098 0 0 0 0.7 0" in="shadowBlurOuter1" result="shadowMatrixOuter1"/><feMerge><feMergeNode in="shadowMatrixOuter1"/><feMergeNode in="SourceGraphic"/></feMerge></filter><path id="w" d="M0-1.385c0-.23.462-.46 1.846-.46h562.616c1.384 0 1.846.23 1.846.46V.923c0 .23-.462.462-1.846.462H1.846C.462 1.385 0 1.155 0 .923v-2.308z"/><path id="x" d="M.462.462C.462.232.922 0 2.308 0h562.615c1.385 0 1.846.23 1.846.462V2.77c0 .23-.462.46-1.847.46H2.308C.923 3.23.462 3 .462 2.77V.46z"/><linearGradient x1="49.275%" y1="50%" x2="0%" y2="50%" id="A"><stop stop-color="#C5C4CA" offset="0%"/><stop stop-color="#807F85" offset="45.983%"/><stop stop-color="#252429" offset="90.124%"/><stop stop-color="#5F5E63" offset="100%"/></linearGradient><path id="z" d="M.462.462C.462.232.922 0 2.308 0h27.23v3.23H2.308C.923 3.23.462 3 .462 2.77V.46z"/><path id="B" d="M537.692.462c0-.23.462-.462 1.846-.462h27.23v3.23h-27.23c-1.384 0-1.846-.23-1.846-.46V.46z"/><filter x="-50%" y="-50%" width="200%" height="200%" filterUnits="objectBoundingBox" id="D"><feOffset in="SourceAlpha" result="shadowOffsetInner1"/><feGaussianBlur in="shadowOffsetInner1" result="shadowBlurInner1"/><feComposite in="shadowBlurInner1" in2="SourceAlpha" operator="arithmetic" k2="-1" k3="1" result="shadowInnerInner1"/><feColorMatrix values="0 0 0 0 1 0 0 0 0 1 0 0 0 0 1 0 0 0 0.0404806386 0" in="shadowInnerInner1" result="shadowMatrixInner1"/><feMerge><feMergeNode in="SourceGraphic"/><feMergeNode in="shadowMatrixInner1"/></feMerge></filter><path id="C" d="M.462.462C.462.232.922 0 2.308 0h562.615c1.385 0 1.846.23 1.846.462V2.77c0 .23-.462.46-1.847.46H2.308C.923 3.23.462 3 .462 2.77V.46z"/><filter x="-50%" y="-50%" width="200%" height="200%" filterUnits="objectBoundingBox" id="F"><feOffset in="SourceAlpha" result="shadowOffsetInner1"/><feGaussianBlur in="shadowOffsetInner1" result="shadowBlurInner1"/><feComposite in="shadowBlurInner1" in2="SourceAlpha" operator="arithmetic" k2="-1" k3="1" result="shadowInnerInner1"/><feColorMatrix values="0 0 0 0 1 0 0 0 0 1 0 0 0 0 1 0 0 0 0.173949841 0" in="shadowInnerInner1" result="shadowMatrixInner1"/><feMerge><feMergeNode in="SourceGraphic"/><feMergeNode in="shadowMatrixInner1"/></feMerge></filter><path id="E" d="M0 0h108.462v3.23c0 .462-4.616.924-17.54.924H17.54C4.615 4.154 0 3.692 0 3.23V0z"/><linearGradient x1="4.463%" y1="50%" x2="0%" y2="50%" id="G"><stop stop-color="#45444A" stop-opacity=".026" offset="0%"/><stop stop-color="#45444A" offset="100%"/></linearGradient><linearGradient x1="4.463%" y1="50%" x2="0%" y2="50%" id="I"><stop stop-color="#45444A" stop-opacity="0" offset="0%"/><stop stop-color="#45444A" offset="100%"/></linearGradient></defs><g fill="none" fill-rule="evenodd"><g><g><path d="M285.692 326.77c155.235 0 281.077.296 281.077-1.616 0-1.912-125.843-5.308-281.078-5.308-155.234 0-281.077 3.396-281.077 5.308s125.843 1.615 281.077 1.615z" opacity=".7" fill="url(#a)" filter="url(#b)" transform="translate(16.154 27.769)"/><g transform="translate(16.154 27.769) translate(52.154)"><path d="M0 18.002C0 8.06 8.06 0 18 0h426.922c9.94 0 18 8.06 18 18.002V308.77c0 6.882-5.578 12.46-12.46 12.46h-438C5.58 321.23 0 315.654 0 308.77V18.002z" stroke="#AFADB2" stroke-width=".5" filter="url(#c)"/><g filter="url(#d)"><use stroke="#545358" stroke-width=".5" fill="#000" xlink:href="#e"/><use stroke="#2A2F32" stroke-width=".923" xlink:href="#e"/><use stroke="#0B0A0F" stroke-width=".5" xlink:href="#e"/></g><path d="M5.538 300.923h452.308v8.77c0 2.548-2.066 4.615-4.615 4.615H10.154c-2.548 0-4.615-2.062-4.615-4.616v-8.77z" fill="#19171A"/><mask><use xlink:href="#f"/></mask><use fill="#191919" xlink:href="#f"/><g fill="#B3B4B8" opacity=".5"><path d="M222.414 311.077h.707l-.348-5.6h-.922l-.997 2.71c-.25.705-.45 1.32-.59 1.885h-.025c-.14-.582-.332-1.197-.565-1.886l-.955-2.708h-.923l-.39 5.6h.69l.15-2.402c.05-.84.09-1.778.107-2.476h.017c.156.665.38 1.388.647 2.177l.905 2.667h.548l.99-2.717c.282-.773.514-1.47.705-2.127h.025c-.008.698.042 1.637.083 2.418l.14 2.46zm4.136 0c-.05-.274-.067-.615-.067-.964v-1.503c0-.806-.3-1.645-1.528-1.645-.507 0-.99.14-1.32.357l.165.482c.282-.183.673-.3 1.047-.3.822 0 .914.6.914.93v.084c-1.553-.008-2.417.524-2.417 1.496 0 .58.415 1.154 1.23 1.154.573 0 1.005-.282 1.23-.598h.024l.058.507h.665zm-.773-1.354c0 .075-.016.158-.04.232-.118.34-.45.673-.973.673-.374 0-.69-.224-.69-.698 0-.78.906-.922 1.703-.905v.698zm4.028.656c-.208.09-.482.198-.898.198-.797 0-1.395-.573-1.395-1.503 0-.84.498-1.52 1.42-1.52.4 0 .673.09.848.19l.166-.564c-.2-.1-.582-.207-1.014-.207-1.312 0-2.16.897-2.16 2.135 0 1.23.79 2.052 2.002 2.052.54 0 .964-.133 1.155-.233l-.125-.548zm.405.68c.24.034.623.067 1.12.067.915 0 1.547-.166 1.937-.524.283-.274.474-.64.474-1.12 0-.832-.622-1.272-1.154-1.405v-.017c.59-.215.947-.688.947-1.228 0-.44-.175-.773-.465-.99-.35-.28-.814-.406-1.537-.406-.506 0-1.004.05-1.32.116v5.508zm.723-5.018c.116-.024.307-.05.64-.05.73 0 1.23.258 1.23.914 0 .54-.45.94-1.214.94h-.657v-1.804zm0 2.352h.598c.79 0 1.446.315 1.446 1.08 0 .814-.69 1.088-1.437 1.088-.258 0-.466-.008-.607-.033v-2.136zm4.89-1.43c-1.112 0-1.993.79-1.993 2.136 0 1.27.84 2.068 1.928 2.068.972 0 2.002-.648 2.002-2.135 0-1.23-.78-2.068-1.936-2.068zm-.016.55c.864 0 1.205.863 1.205 1.544 0 .906-.523 1.562-1.22 1.562-.716 0-1.222-.665-1.222-1.545 0-.765.373-1.562 1.237-1.562zm3.978-.55c-1.113 0-1.994.79-1.994 2.136 0 1.27.84 2.068 1.928 2.068.972 0 2.003-.648 2.003-2.135 0-1.23-.78-2.068-1.935-2.068zm-.017.55c.864 0 1.205.863 1.205 1.544 0 .906-.523 1.562-1.22 1.562-.716 0-1.223-.665-1.223-1.545 0-.765.374-1.562 1.238-1.562zm2.998-2.336h-.723v5.9h.723v-1.513l.373-.415 1.387 1.927h.89l-1.77-2.368 1.553-1.654h-.88l-1.18 1.387c-.117.142-.258.316-.358.457h-.016v-3.722z"/></g></g><g><g transform="translate(16.616 344.384)"><mask id="j"><use xlink:href="#g"/></mask><use fill="#6A696E" xlink:href="#g"/><use fill="url(#h)" xlink:href="#g"/><path fill-opacity=".232" fill="#000" filter="url(#i)" mask="url(#j)" d="M.692 3h565.846v-.23H.232V3h.46z"/><mask><use xlink:href="#k"/></mask><use fill="url(#l)" transform="matrix(-1 0 0 1 566.308 0)" xlink:href="#k"/><mask><use xlink:href="#m"/></mask><use fill="url(#n)" xlink:href="#m"/><mask id="r"><use xlink:href="#o"/></mask><use fill-opacity=".042" xlink:href="#o"/><ellipse id="screw-hole" fill="url(#p)" filter="url(#q)" mask="url(#r)" cx="510.692" cy="6.231" rx="2.538" ry=".692"/><ellipse id="screw-hole" fill="url(#p)" filter="url(#s)" mask="url(#r)" cx="213.923" cy="6.231" rx="2.538" ry=".692"/><ellipse id="screw-hole" fill="url(#p)" filter="url(#t)" mask="url(#r)" cx="352.846" cy="6.231" rx="2.538" ry=".692"/><ellipse fill="url(#p)" filter="url(#u)" mask="url(#r)" cx="55.615" cy="6.231" rx="2.538" ry=".692"/><g filter="url(#v)"><use fill="#fff" mask="url(#r)" xlink:href="#w"/><use xlink:href="#w"/></g></g><g transform="translate(16.154 27.769) translate(0 314.769)"><mask id="y"><use xlink:href="#x"/></mask><use id="bottom-lid" fill="#C5C4CA" xlink:href="#x"/><g><use mask="url(#y)" xlink:href="#z"/><use fill="url(#A)" xlink:href="#z"/></g><g><use mask="url(#y)" transform="matrix(-1 0 0 1 1104.462 0)" xlink:href="#B"/><use fill="url(#A)" xlink:href="#B"/></g><mask><use xlink:href="#C"/></mask><use fill="#fff" filter="url(#D)" xlink:href="#C"/></g><g transform="translate(245.539 342.538)"><mask id="H"><use xlink:href="#E"/></mask><use fill="#C4C3C9" filter="url(#F)" xlink:href="#E"/><path d="M0 0h108.462v3.23c0 .462-4.616.924-17.54.924H17.54C4.615 4.154 0 3.692 0 3.23V0z" fill="url(#G)" mask="url(#H)"/><path d="M0 0h108.462v3.23c0 .462-4.616.924-17.54.924H17.54C4.615 4.154 0 3.692 0 3.23V0z" fill="url(#I)" mask="url(#H)"/></g></g></g></g></g></svg>