<svg width="800" height="400" viewBox="0 0 800 400" xmlns="http://www.w3.org/2000/svg"><title>bubble</title><desc>Created with Sketch.</desc><g fill="none" fill-rule="evenodd"><g fill="#fff"><g><path d="M166 251c27.614 0 50-22.386 50-50s-22.386-50-50-50-50 22.386-50 50 22.386 50 50 50zm87.703-19.043c-5.016-7.875-7.923-17.233-7.923-27.272v-2.983c0-28 22.616-50.702 50.51-50.702h337.98c27.894 0 50.51 22.7 50.51 50.702v2.983c0 28-22.616 50.7-50.51 50.7H296.29c-10.837 0-20.878-3.425-29.105-9.258-7.964 4.07-17.868 6.627-30.18 6.627-.283 0 14.008-5.94 16.698-20.797z"/></g></g></g></svg>